{
  "asset": {
    "generator": "Khronos glTF Blender I/O v4.0.44",
    "version": "2.0"
  },
  "extensionsUsed": ["KHR_materials_specular", "KHR_materials_ior"],
  "scene": 0,
  "scenes": [
    {
      "name": "Scene",
      "nodes": [15]
    }
  ],
  "nodes": [
    {
      "name": "Head",
      "rotation": [
        5.421009803636338e-16, 2.3283064365386963e-8, 2.3283062589030123e-8, 1
      ],
      "translation": [
        3.552713678800501e-14, 0.5999999046325684, 4.440892098500626e-15
      ]
    },
    {
      "name": "Arm:Left:Lower",
      "rotation": [
        -3.772946903767829e-15, 5.221483689865636e-8, -2.9802322387695312e-8, 1
      ],
      "translation": [
        3.68776369441548e-8, 0.39999982714653015, -6.265779006753291e-8
      ]
    },
    {
      "children": [1],
      "name": "Arm:Left:Upper",
      "rotation": [
        -1, 5.1285197978287716e-23, 7.549790126404332e-8, 2.2204464727667867e-15
      ],
      "translation": [
        0.6000000238418579, 0.3999998867511749, -2.7939673685750677e-8
      ]
    },
    {
      "name": "Arm:Right:Lower",
      "rotation": [
        -3.772946480251355e-15, 5.221483689865636e-8, -2.9802322387695312e-8, 1
      ],
      "translation": [
        -2.2727007831235824e-8, 0.3999998867511749, 6.265781848924235e-8
      ]
    },
    {
      "children": [3],
      "name": "Arm:Right:Upper",
      "rotation": [
        -1, 5.1285197978287716e-23, 7.549790126404332e-8, 2.220447108041497e-15
      ],
      "translation": [
        -0.6000000238418579, 0.39999982714653015, 2.7939684343891713e-8
      ]
    },
    {
      "children": [0, 2, 4],
      "name": "Chest",
      "rotation": [
        -5.421009803636338e-16, -2.3283064365386963e-8, -2.3283060812673284e-8,
        1
      ],
      "translation": [0, 0.6000000238418579, 0]
    },
    {
      "children": [5],
      "name": "Body",
      "rotation": [0.7071067690849304, 0, 0, 0.7071067690849304]
    },
    {
      "name": "Leg:Right:Lower",
      "rotation": [0, -7.549790126404332e-8, 0, 1],
      "translation": [
        -9.112511634157272e-9, 0.5999997854232788, -3.0199167611044686e-8
      ]
    },
    {
      "children": [7],
      "name": "Leg:Right:Upper",
      "rotation": [
        -0.7071067690849304, 5.338507591545749e-8, -5.338507591545749e-8,
        0.7071067690849304
      ],
      "translation": [-0.20000004768371582, 0, 0]
    },
    {
      "name": "Leg:Left:Lower",
      "rotation": [0, -7.549790126404332e-8, 0, 1],
      "translation": [
        5.788592716271523e-9, 0.5999997854232788, 5.070363044978876e-7
      ]
    },
    {
      "children": [9],
      "name": "Leg:Left:Upper",
      "rotation": [
        -0.7071067690849304, 5.338507591545749e-8, -5.338507591545749e-8,
        0.7071067690849304
      ],
      "translation": [0.20000004768371582, 4.76837158203125e-7, 0]
    },
    {
      "children": [6, 8, 10],
      "name": "center",
      "translation": [0, 0, 1.6119829416275024]
    },
    {
      "children": [11],
      "name": "MAIN",
      "rotation": [-0.7071067690849304, 0, 0, 0.7071067690849304],
      "translation": [0, -0.3926849365234375, 0]
    },
    {
      "mesh": 0,
      "name": "SimplePlayer.Body.Layer1",
      "skin": 0
    },
    {
      "mesh": 1,
      "name": "SimplePlayer.Body.Layer2",
      "skin": 0
    },
    {
      "children": [13, 14, 12],
      "name": "SimplePlayer.arma",
      "scale": [0.6203539967536926, 0.6203539967536926, 0.6203539967536926],
      "translation": [0, 0, 3.880655527114868]
    }
  ],
  "animations": [
    {
      "channels": [
        {
          "sampler": 0,
          "target": {
            "node": 12,
            "path": "translation"
          }
        },
        {
          "sampler": 1,
          "target": {
            "node": 12,
            "path": "rotation"
          }
        },
        {
          "sampler": 2,
          "target": {
            "node": 12,
            "path": "scale"
          }
        },
        {
          "sampler": 3,
          "target": {
            "node": 11,
            "path": "translation"
          }
        },
        {
          "sampler": 4,
          "target": {
            "node": 11,
            "path": "rotation"
          }
        },
        {
          "sampler": 5,
          "target": {
            "node": 11,
            "path": "scale"
          }
        },
        {
          "sampler": 6,
          "target": {
            "node": 6,
            "path": "translation"
          }
        },
        {
          "sampler": 7,
          "target": {
            "node": 6,
            "path": "rotation"
          }
        },
        {
          "sampler": 8,
          "target": {
            "node": 6,
            "path": "scale"
          }
        },
        {
          "sampler": 9,
          "target": {
            "node": 5,
            "path": "translation"
          }
        },
        {
          "sampler": 10,
          "target": {
            "node": 5,
            "path": "rotation"
          }
        },
        {
          "sampler": 11,
          "target": {
            "node": 5,
            "path": "scale"
          }
        },
        {
          "sampler": 12,
          "target": {
            "node": 0,
            "path": "translation"
          }
        },
        {
          "sampler": 13,
          "target": {
            "node": 0,
            "path": "rotation"
          }
        },
        {
          "sampler": 14,
          "target": {
            "node": 0,
            "path": "scale"
          }
        },
        {
          "sampler": 15,
          "target": {
            "node": 2,
            "path": "translation"
          }
        },
        {
          "sampler": 16,
          "target": {
            "node": 2,
            "path": "rotation"
          }
        },
        {
          "sampler": 17,
          "target": {
            "node": 2,
            "path": "scale"
          }
        },
        {
          "sampler": 18,
          "target": {
            "node": 1,
            "path": "translation"
          }
        },
        {
          "sampler": 19,
          "target": {
            "node": 1,
            "path": "rotation"
          }
        },
        {
          "sampler": 20,
          "target": {
            "node": 1,
            "path": "scale"
          }
        },
        {
          "sampler": 21,
          "target": {
            "node": 4,
            "path": "translation"
          }
        },
        {
          "sampler": 22,
          "target": {
            "node": 4,
            "path": "rotation"
          }
        },
        {
          "sampler": 23,
          "target": {
            "node": 4,
            "path": "scale"
          }
        },
        {
          "sampler": 24,
          "target": {
            "node": 3,
            "path": "translation"
          }
        },
        {
          "sampler": 25,
          "target": {
            "node": 3,
            "path": "rotation"
          }
        },
        {
          "sampler": 26,
          "target": {
            "node": 3,
            "path": "scale"
          }
        },
        {
          "sampler": 27,
          "target": {
            "node": 8,
            "path": "translation"
          }
        },
        {
          "sampler": 28,
          "target": {
            "node": 8,
            "path": "rotation"
          }
        },
        {
          "sampler": 29,
          "target": {
            "node": 8,
            "path": "scale"
          }
        },
        {
          "sampler": 30,
          "target": {
            "node": 7,
            "path": "translation"
          }
        },
        {
          "sampler": 31,
          "target": {
            "node": 7,
            "path": "rotation"
          }
        },
        {
          "sampler": 32,
          "target": {
            "node": 7,
            "path": "scale"
          }
        },
        {
          "sampler": 33,
          "target": {
            "node": 10,
            "path": "translation"
          }
        },
        {
          "sampler": 34,
          "target": {
            "node": 10,
            "path": "rotation"
          }
        },
        {
          "sampler": 35,
          "target": {
            "node": 10,
            "path": "scale"
          }
        },
        {
          "sampler": 36,
          "target": {
            "node": 9,
            "path": "translation"
          }
        },
        {
          "sampler": 37,
          "target": {
            "node": 9,
            "path": "rotation"
          }
        },
        {
          "sampler": 38,
          "target": {
            "node": 9,
            "path": "scale"
          }
        }
      ],
      "name": "block",
      "samplers": [
        {
          "input": 13,
          "interpolation": "STEP",
          "output": 14
        },
        {
          "input": 13,
          "interpolation": "STEP",
          "output": 15
        },
        {
          "input": 13,
          "interpolation": "STEP",
          "output": 16
        },
        {
          "input": 13,
          "interpolation": "STEP",
          "output": 17
        },
        {
          "input": 13,
          "interpolation": "STEP",
          "output": 18
        },
        {
          "input": 13,
          "interpolation": "STEP",
          "output": 19
        },
        {
          "input": 13,
          "interpolation": "STEP",
          "output": 20
        },
        {
          "input": 13,
          "interpolation": "STEP",
          "output": 21
        },
        {
          "input": 13,
          "interpolation": "STEP",
          "output": 22
        },
        {
          "input": 13,
          "interpolation": "STEP",
          "output": 23
        },
        {
          "input": 13,
          "interpolation": "STEP",
          "output": 24
        },
        {
          "input": 13,
          "interpolation": "STEP",
          "output": 25
        },
        {
          "input": 13,
          "interpolation": "STEP",
          "output": 26
        },
        {
          "input": 27,
          "interpolation": "LINEAR",
          "output": 28
        },
        {
          "input": 13,
          "interpolation": "STEP",
          "output": 29
        },
        {
          "input": 13,
          "interpolation": "LINEAR",
          "output": 30
        },
        {
          "input": 27,
          "interpolation": "LINEAR",
          "output": 31
        },
        {
          "input": 13,
          "interpolation": "STEP",
          "output": 32
        },
        {
          "input": 13,
          "interpolation": "LINEAR",
          "output": 33
        },
        {
          "input": 27,
          "interpolation": "LINEAR",
          "output": 34
        },
        {
          "input": 13,
          "interpolation": "STEP",
          "output": 35
        },
        {
          "input": 13,
          "interpolation": "LINEAR",
          "output": 36
        },
        {
          "input": 27,
          "interpolation": "LINEAR",
          "output": 37
        },
        {
          "input": 13,
          "interpolation": "STEP",
          "output": 38
        },
        {
          "input": 13,
          "interpolation": "LINEAR",
          "output": 39
        },
        {
          "input": 13,
          "interpolation": "LINEAR",
          "output": 40
        },
        {
          "input": 13,
          "interpolation": "STEP",
          "output": 41
        },
        {
          "input": 13,
          "interpolation": "STEP",
          "output": 42
        },
        {
          "input": 13,
          "interpolation": "STEP",
          "output": 43
        },
        {
          "input": 13,
          "interpolation": "STEP",
          "output": 44
        },
        {
          "input": 13,
          "interpolation": "STEP",
          "output": 45
        },
        {
          "input": 13,
          "interpolation": "STEP",
          "output": 46
        },
        {
          "input": 13,
          "interpolation": "STEP",
          "output": 47
        },
        {
          "input": 13,
          "interpolation": "STEP",
          "output": 48
        },
        {
          "input": 13,
          "interpolation": "STEP",
          "output": 49
        },
        {
          "input": 13,
          "interpolation": "STEP",
          "output": 50
        },
        {
          "input": 13,
          "interpolation": "STEP",
          "output": 51
        },
        {
          "input": 13,
          "interpolation": "STEP",
          "output": 52
        },
        {
          "input": 13,
          "interpolation": "STEP",
          "output": 53
        }
      ]
    },
    {
      "channels": [
        {
          "sampler": 0,
          "target": {
            "node": 12,
            "path": "translation"
          }
        },
        {
          "sampler": 1,
          "target": {
            "node": 12,
            "path": "rotation"
          }
        },
        {
          "sampler": 2,
          "target": {
            "node": 12,
            "path": "scale"
          }
        },
        {
          "sampler": 3,
          "target": {
            "node": 11,
            "path": "translation"
          }
        },
        {
          "sampler": 4,
          "target": {
            "node": 11,
            "path": "rotation"
          }
        },
        {
          "sampler": 5,
          "target": {
            "node": 11,
            "path": "scale"
          }
        },
        {
          "sampler": 6,
          "target": {
            "node": 6,
            "path": "translation"
          }
        },
        {
          "sampler": 7,
          "target": {
            "node": 6,
            "path": "rotation"
          }
        },
        {
          "sampler": 8,
          "target": {
            "node": 6,
            "path": "scale"
          }
        },
        {
          "sampler": 9,
          "target": {
            "node": 5,
            "path": "translation"
          }
        },
        {
          "sampler": 10,
          "target": {
            "node": 5,
            "path": "rotation"
          }
        },
        {
          "sampler": 11,
          "target": {
            "node": 5,
            "path": "scale"
          }
        },
        {
          "sampler": 12,
          "target": {
            "node": 0,
            "path": "translation"
          }
        },
        {
          "sampler": 13,
          "target": {
            "node": 0,
            "path": "rotation"
          }
        },
        {
          "sampler": 14,
          "target": {
            "node": 0,
            "path": "scale"
          }
        },
        {
          "sampler": 15,
          "target": {
            "node": 2,
            "path": "translation"
          }
        },
        {
          "sampler": 16,
          "target": {
            "node": 2,
            "path": "rotation"
          }
        },
        {
          "sampler": 17,
          "target": {
            "node": 2,
            "path": "scale"
          }
        },
        {
          "sampler": 18,
          "target": {
            "node": 1,
            "path": "translation"
          }
        },
        {
          "sampler": 19,
          "target": {
            "node": 1,
            "path": "rotation"
          }
        },
        {
          "sampler": 20,
          "target": {
            "node": 1,
            "path": "scale"
          }
        },
        {
          "sampler": 21,
          "target": {
            "node": 4,
            "path": "translation"
          }
        },
        {
          "sampler": 22,
          "target": {
            "node": 4,
            "path": "rotation"
          }
        },
        {
          "sampler": 23,
          "target": {
            "node": 4,
            "path": "scale"
          }
        },
        {
          "sampler": 24,
          "target": {
            "node": 3,
            "path": "translation"
          }
        },
        {
          "sampler": 25,
          "target": {
            "node": 3,
            "path": "rotation"
          }
        },
        {
          "sampler": 26,
          "target": {
            "node": 3,
            "path": "scale"
          }
        },
        {
          "sampler": 27,
          "target": {
            "node": 8,
            "path": "translation"
          }
        },
        {
          "sampler": 28,
          "target": {
            "node": 8,
            "path": "rotation"
          }
        },
        {
          "sampler": 29,
          "target": {
            "node": 8,
            "path": "scale"
          }
        },
        {
          "sampler": 30,
          "target": {
            "node": 7,
            "path": "translation"
          }
        },
        {
          "sampler": 31,
          "target": {
            "node": 7,
            "path": "rotation"
          }
        },
        {
          "sampler": 32,
          "target": {
            "node": 7,
            "path": "scale"
          }
        },
        {
          "sampler": 33,
          "target": {
            "node": 10,
            "path": "translation"
          }
        },
        {
          "sampler": 34,
          "target": {
            "node": 10,
            "path": "rotation"
          }
        },
        {
          "sampler": 35,
          "target": {
            "node": 10,
            "path": "scale"
          }
        },
        {
          "sampler": 36,
          "target": {
            "node": 9,
            "path": "translation"
          }
        },
        {
          "sampler": 37,
          "target": {
            "node": 9,
            "path": "rotation"
          }
        },
        {
          "sampler": 38,
          "target": {
            "node": 9,
            "path": "scale"
          }
        }
      ],
      "name": "headshot",
      "samplers": [
        {
          "input": 54,
          "interpolation": "STEP",
          "output": 55
        },
        {
          "input": 54,
          "interpolation": "STEP",
          "output": 56
        },
        {
          "input": 54,
          "interpolation": "STEP",
          "output": 57
        },
        {
          "input": 54,
          "interpolation": "STEP",
          "output": 58
        },
        {
          "input": 54,
          "interpolation": "STEP",
          "output": 59
        },
        {
          "input": 54,
          "interpolation": "STEP",
          "output": 60
        },
        {
          "input": 54,
          "interpolation": "STEP",
          "output": 61
        },
        {
          "input": 54,
          "interpolation": "STEP",
          "output": 62
        },
        {
          "input": 54,
          "interpolation": "STEP",
          "output": 63
        },
        {
          "input": 54,
          "interpolation": "STEP",
          "output": 64
        },
        {
          "input": 54,
          "interpolation": "STEP",
          "output": 65
        },
        {
          "input": 54,
          "interpolation": "STEP",
          "output": 66
        },
        {
          "input": 54,
          "interpolation": "STEP",
          "output": 67
        },
        {
          "input": 68,
          "interpolation": "LINEAR",
          "output": 69
        },
        {
          "input": 54,
          "interpolation": "STEP",
          "output": 70
        },
        {
          "input": 54,
          "interpolation": "LINEAR",
          "output": 71
        },
        {
          "input": 68,
          "interpolation": "LINEAR",
          "output": 72
        },
        {
          "input": 54,
          "interpolation": "STEP",
          "output": 73
        },
        {
          "input": 54,
          "interpolation": "LINEAR",
          "output": 74
        },
        {
          "input": 54,
          "interpolation": "LINEAR",
          "output": 75
        },
        {
          "input": 54,
          "interpolation": "STEP",
          "output": 76
        },
        {
          "input": 54,
          "interpolation": "LINEAR",
          "output": 77
        },
        {
          "input": 68,
          "interpolation": "LINEAR",
          "output": 78
        },
        {
          "input": 54,
          "interpolation": "STEP",
          "output": 79
        },
        {
          "input": 54,
          "interpolation": "LINEAR",
          "output": 80
        },
        {
          "input": 54,
          "interpolation": "LINEAR",
          "output": 81
        },
        {
          "input": 54,
          "interpolation": "STEP",
          "output": 82
        },
        {
          "input": 54,
          "interpolation": "STEP",
          "output": 83
        },
        {
          "input": 54,
          "interpolation": "STEP",
          "output": 84
        },
        {
          "input": 54,
          "interpolation": "STEP",
          "output": 85
        },
        {
          "input": 54,
          "interpolation": "STEP",
          "output": 86
        },
        {
          "input": 54,
          "interpolation": "STEP",
          "output": 87
        },
        {
          "input": 54,
          "interpolation": "STEP",
          "output": 88
        },
        {
          "input": 54,
          "interpolation": "STEP",
          "output": 89
        },
        {
          "input": 54,
          "interpolation": "STEP",
          "output": 90
        },
        {
          "input": 54,
          "interpolation": "STEP",
          "output": 91
        },
        {
          "input": 54,
          "interpolation": "STEP",
          "output": 92
        },
        {
          "input": 54,
          "interpolation": "STEP",
          "output": 93
        },
        {
          "input": 54,
          "interpolation": "STEP",
          "output": 94
        }
      ]
    },
    {
      "channels": [
        {
          "sampler": 0,
          "target": {
            "node": 12,
            "path": "translation"
          }
        },
        {
          "sampler": 1,
          "target": {
            "node": 12,
            "path": "rotation"
          }
        },
        {
          "sampler": 2,
          "target": {
            "node": 12,
            "path": "scale"
          }
        },
        {
          "sampler": 3,
          "target": {
            "node": 11,
            "path": "translation"
          }
        },
        {
          "sampler": 4,
          "target": {
            "node": 11,
            "path": "rotation"
          }
        },
        {
          "sampler": 5,
          "target": {
            "node": 11,
            "path": "scale"
          }
        },
        {
          "sampler": 6,
          "target": {
            "node": 6,
            "path": "translation"
          }
        },
        {
          "sampler": 7,
          "target": {
            "node": 6,
            "path": "rotation"
          }
        },
        {
          "sampler": 8,
          "target": {
            "node": 6,
            "path": "scale"
          }
        },
        {
          "sampler": 9,
          "target": {
            "node": 5,
            "path": "translation"
          }
        },
        {
          "sampler": 10,
          "target": {
            "node": 5,
            "path": "rotation"
          }
        },
        {
          "sampler": 11,
          "target": {
            "node": 5,
            "path": "scale"
          }
        },
        {
          "sampler": 12,
          "target": {
            "node": 0,
            "path": "translation"
          }
        },
        {
          "sampler": 13,
          "target": {
            "node": 0,
            "path": "rotation"
          }
        },
        {
          "sampler": 14,
          "target": {
            "node": 0,
            "path": "scale"
          }
        },
        {
          "sampler": 15,
          "target": {
            "node": 2,
            "path": "translation"
          }
        },
        {
          "sampler": 16,
          "target": {
            "node": 2,
            "path": "rotation"
          }
        },
        {
          "sampler": 17,
          "target": {
            "node": 2,
            "path": "scale"
          }
        },
        {
          "sampler": 18,
          "target": {
            "node": 1,
            "path": "translation"
          }
        },
        {
          "sampler": 19,
          "target": {
            "node": 1,
            "path": "rotation"
          }
        },
        {
          "sampler": 20,
          "target": {
            "node": 1,
            "path": "scale"
          }
        },
        {
          "sampler": 21,
          "target": {
            "node": 4,
            "path": "translation"
          }
        },
        {
          "sampler": 22,
          "target": {
            "node": 4,
            "path": "rotation"
          }
        },
        {
          "sampler": 23,
          "target": {
            "node": 4,
            "path": "scale"
          }
        },
        {
          "sampler": 24,
          "target": {
            "node": 3,
            "path": "translation"
          }
        },
        {
          "sampler": 25,
          "target": {
            "node": 3,
            "path": "rotation"
          }
        },
        {
          "sampler": 26,
          "target": {
            "node": 3,
            "path": "scale"
          }
        },
        {
          "sampler": 27,
          "target": {
            "node": 8,
            "path": "translation"
          }
        },
        {
          "sampler": 28,
          "target": {
            "node": 8,
            "path": "rotation"
          }
        },
        {
          "sampler": 29,
          "target": {
            "node": 8,
            "path": "scale"
          }
        },
        {
          "sampler": 30,
          "target": {
            "node": 7,
            "path": "translation"
          }
        },
        {
          "sampler": 31,
          "target": {
            "node": 7,
            "path": "rotation"
          }
        },
        {
          "sampler": 32,
          "target": {
            "node": 7,
            "path": "scale"
          }
        },
        {
          "sampler": 33,
          "target": {
            "node": 10,
            "path": "translation"
          }
        },
        {
          "sampler": 34,
          "target": {
            "node": 10,
            "path": "rotation"
          }
        },
        {
          "sampler": 35,
          "target": {
            "node": 10,
            "path": "scale"
          }
        },
        {
          "sampler": 36,
          "target": {
            "node": 9,
            "path": "translation"
          }
        },
        {
          "sampler": 37,
          "target": {
            "node": 9,
            "path": "rotation"
          }
        },
        {
          "sampler": 38,
          "target": {
            "node": 9,
            "path": "scale"
          }
        }
      ],
      "name": "something_delete",
      "samplers": [
        {
          "input": 13,
          "interpolation": "STEP",
          "output": 95
        },
        {
          "input": 13,
          "interpolation": "STEP",
          "output": 96
        },
        {
          "input": 13,
          "interpolation": "STEP",
          "output": 97
        },
        {
          "input": 13,
          "interpolation": "STEP",
          "output": 98
        },
        {
          "input": 13,
          "interpolation": "STEP",
          "output": 99
        },
        {
          "input": 13,
          "interpolation": "STEP",
          "output": 100
        },
        {
          "input": 13,
          "interpolation": "STEP",
          "output": 101
        },
        {
          "input": 13,
          "interpolation": "STEP",
          "output": 102
        },
        {
          "input": 13,
          "interpolation": "STEP",
          "output": 103
        },
        {
          "input": 13,
          "interpolation": "STEP",
          "output": 104
        },
        {
          "input": 13,
          "interpolation": "STEP",
          "output": 105
        },
        {
          "input": 13,
          "interpolation": "STEP",
          "output": 106
        },
        {
          "input": 13,
          "interpolation": "STEP",
          "output": 107
        },
        {
          "input": 27,
          "interpolation": "LINEAR",
          "output": 108
        },
        {
          "input": 13,
          "interpolation": "STEP",
          "output": 109
        },
        {
          "input": 13,
          "interpolation": "LINEAR",
          "output": 110
        },
        {
          "input": 27,
          "interpolation": "LINEAR",
          "output": 111
        },
        {
          "input": 13,
          "interpolation": "STEP",
          "output": 112
        },
        {
          "input": 13,
          "interpolation": "LINEAR",
          "output": 113
        },
        {
          "input": 13,
          "interpolation": "LINEAR",
          "output": 114
        },
        {
          "input": 13,
          "interpolation": "STEP",
          "output": 115
        },
        {
          "input": 13,
          "interpolation": "LINEAR",
          "output": 116
        },
        {
          "input": 27,
          "interpolation": "LINEAR",
          "output": 117
        },
        {
          "input": 13,
          "interpolation": "STEP",
          "output": 118
        },
        {
          "input": 13,
          "interpolation": "LINEAR",
          "output": 119
        },
        {
          "input": 13,
          "interpolation": "LINEAR",
          "output": 120
        },
        {
          "input": 13,
          "interpolation": "STEP",
          "output": 121
        },
        {
          "input": 13,
          "interpolation": "STEP",
          "output": 122
        },
        {
          "input": 13,
          "interpolation": "STEP",
          "output": 123
        },
        {
          "input": 13,
          "interpolation": "STEP",
          "output": 124
        },
        {
          "input": 13,
          "interpolation": "STEP",
          "output": 125
        },
        {
          "input": 13,
          "interpolation": "STEP",
          "output": 126
        },
        {
          "input": 13,
          "interpolation": "STEP",
          "output": 127
        },
        {
          "input": 13,
          "interpolation": "STEP",
          "output": 128
        },
        {
          "input": 13,
          "interpolation": "STEP",
          "output": 129
        },
        {
          "input": 13,
          "interpolation": "STEP",
          "output": 130
        },
        {
          "input": 13,
          "interpolation": "STEP",
          "output": 131
        },
        {
          "input": 13,
          "interpolation": "STEP",
          "output": 132
        },
        {
          "input": 13,
          "interpolation": "STEP",
          "output": 133
        }
      ]
    },
    {
      "channels": [
        {
          "sampler": 0,
          "target": {
            "node": 12,
            "path": "translation"
          }
        },
        {
          "sampler": 1,
          "target": {
            "node": 12,
            "path": "rotation"
          }
        },
        {
          "sampler": 2,
          "target": {
            "node": 12,
            "path": "scale"
          }
        },
        {
          "sampler": 3,
          "target": {
            "node": 11,
            "path": "translation"
          }
        },
        {
          "sampler": 4,
          "target": {
            "node": 11,
            "path": "rotation"
          }
        },
        {
          "sampler": 5,
          "target": {
            "node": 11,
            "path": "scale"
          }
        },
        {
          "sampler": 6,
          "target": {
            "node": 6,
            "path": "translation"
          }
        },
        {
          "sampler": 7,
          "target": {
            "node": 6,
            "path": "rotation"
          }
        },
        {
          "sampler": 8,
          "target": {
            "node": 6,
            "path": "scale"
          }
        },
        {
          "sampler": 9,
          "target": {
            "node": 5,
            "path": "translation"
          }
        },
        {
          "sampler": 10,
          "target": {
            "node": 5,
            "path": "rotation"
          }
        },
        {
          "sampler": 11,
          "target": {
            "node": 5,
            "path": "scale"
          }
        },
        {
          "sampler": 12,
          "target": {
            "node": 0,
            "path": "translation"
          }
        },
        {
          "sampler": 13,
          "target": {
            "node": 0,
            "path": "rotation"
          }
        },
        {
          "sampler": 14,
          "target": {
            "node": 0,
            "path": "scale"
          }
        },
        {
          "sampler": 15,
          "target": {
            "node": 2,
            "path": "translation"
          }
        },
        {
          "sampler": 16,
          "target": {
            "node": 2,
            "path": "rotation"
          }
        },
        {
          "sampler": 17,
          "target": {
            "node": 2,
            "path": "scale"
          }
        },
        {
          "sampler": 18,
          "target": {
            "node": 1,
            "path": "translation"
          }
        },
        {
          "sampler": 19,
          "target": {
            "node": 1,
            "path": "rotation"
          }
        },
        {
          "sampler": 20,
          "target": {
            "node": 1,
            "path": "scale"
          }
        },
        {
          "sampler": 21,
          "target": {
            "node": 4,
            "path": "translation"
          }
        },
        {
          "sampler": 22,
          "target": {
            "node": 4,
            "path": "rotation"
          }
        },
        {
          "sampler": 23,
          "target": {
            "node": 4,
            "path": "scale"
          }
        },
        {
          "sampler": 24,
          "target": {
            "node": 3,
            "path": "translation"
          }
        },
        {
          "sampler": 25,
          "target": {
            "node": 3,
            "path": "rotation"
          }
        },
        {
          "sampler": 26,
          "target": {
            "node": 3,
            "path": "scale"
          }
        },
        {
          "sampler": 27,
          "target": {
            "node": 8,
            "path": "translation"
          }
        },
        {
          "sampler": 28,
          "target": {
            "node": 8,
            "path": "rotation"
          }
        },
        {
          "sampler": 29,
          "target": {
            "node": 8,
            "path": "scale"
          }
        },
        {
          "sampler": 30,
          "target": {
            "node": 7,
            "path": "translation"
          }
        },
        {
          "sampler": 31,
          "target": {
            "node": 7,
            "path": "rotation"
          }
        },
        {
          "sampler": 32,
          "target": {
            "node": 7,
            "path": "scale"
          }
        },
        {
          "sampler": 33,
          "target": {
            "node": 10,
            "path": "translation"
          }
        },
        {
          "sampler": 34,
          "target": {
            "node": 10,
            "path": "rotation"
          }
        },
        {
          "sampler": 35,
          "target": {
            "node": 10,
            "path": "scale"
          }
        },
        {
          "sampler": 36,
          "target": {
            "node": 9,
            "path": "translation"
          }
        },
        {
          "sampler": 37,
          "target": {
            "node": 9,
            "path": "rotation"
          }
        },
        {
          "sampler": 38,
          "target": {
            "node": 9,
            "path": "scale"
          }
        }
      ],
      "name": "tea",
      "samplers": [
        {
          "input": 13,
          "interpolation": "STEP",
          "output": 134
        },
        {
          "input": 13,
          "interpolation": "STEP",
          "output": 135
        },
        {
          "input": 13,
          "interpolation": "STEP",
          "output": 136
        },
        {
          "input": 13,
          "interpolation": "STEP",
          "output": 137
        },
        {
          "input": 13,
          "interpolation": "STEP",
          "output": 138
        },
        {
          "input": 13,
          "interpolation": "STEP",
          "output": 139
        },
        {
          "input": 13,
          "interpolation": "STEP",
          "output": 140
        },
        {
          "input": 13,
          "interpolation": "STEP",
          "output": 141
        },
        {
          "input": 13,
          "interpolation": "STEP",
          "output": 142
        },
        {
          "input": 13,
          "interpolation": "STEP",
          "output": 143
        },
        {
          "input": 13,
          "interpolation": "STEP",
          "output": 144
        },
        {
          "input": 13,
          "interpolation": "STEP",
          "output": 145
        },
        {
          "input": 13,
          "interpolation": "STEP",
          "output": 146
        },
        {
          "input": 13,
          "interpolation": "STEP",
          "output": 147
        },
        {
          "input": 13,
          "interpolation": "STEP",
          "output": 148
        },
        {
          "input": 13,
          "interpolation": "LINEAR",
          "output": 149
        },
        {
          "input": 27,
          "interpolation": "LINEAR",
          "output": 150
        },
        {
          "input": 13,
          "interpolation": "STEP",
          "output": 151
        },
        {
          "input": 13,
          "interpolation": "LINEAR",
          "output": 152
        },
        {
          "input": 13,
          "interpolation": "LINEAR",
          "output": 153
        },
        {
          "input": 13,
          "interpolation": "STEP",
          "output": 154
        },
        {
          "input": 13,
          "interpolation": "LINEAR",
          "output": 155
        },
        {
          "input": 27,
          "interpolation": "LINEAR",
          "output": 156
        },
        {
          "input": 13,
          "interpolation": "STEP",
          "output": 157
        },
        {
          "input": 13,
          "interpolation": "LINEAR",
          "output": 158
        },
        {
          "input": 27,
          "interpolation": "LINEAR",
          "output": 159
        },
        {
          "input": 13,
          "interpolation": "LINEAR",
          "output": 160
        },
        {
          "input": 13,
          "interpolation": "STEP",
          "output": 161
        },
        {
          "input": 13,
          "interpolation": "STEP",
          "output": 162
        },
        {
          "input": 13,
          "interpolation": "STEP",
          "output": 163
        },
        {
          "input": 13,
          "interpolation": "STEP",
          "output": 164
        },
        {
          "input": 13,
          "interpolation": "STEP",
          "output": 165
        },
        {
          "input": 13,
          "interpolation": "STEP",
          "output": 166
        },
        {
          "input": 13,
          "interpolation": "STEP",
          "output": 167
        },
        {
          "input": 13,
          "interpolation": "STEP",
          "output": 168
        },
        {
          "input": 13,
          "interpolation": "STEP",
          "output": 169
        },
        {
          "input": 13,
          "interpolation": "STEP",
          "output": 170
        },
        {
          "input": 13,
          "interpolation": "STEP",
          "output": 171
        },
        {
          "input": 13,
          "interpolation": "STEP",
          "output": 172
        }
      ]
    },
    {
      "channels": [
        {
          "sampler": 0,
          "target": {
            "node": 12,
            "path": "translation"
          }
        },
        {
          "sampler": 1,
          "target": {
            "node": 12,
            "path": "rotation"
          }
        },
        {
          "sampler": 2,
          "target": {
            "node": 12,
            "path": "scale"
          }
        },
        {
          "sampler": 3,
          "target": {
            "node": 11,
            "path": "translation"
          }
        },
        {
          "sampler": 4,
          "target": {
            "node": 11,
            "path": "rotation"
          }
        },
        {
          "sampler": 5,
          "target": {
            "node": 11,
            "path": "scale"
          }
        },
        {
          "sampler": 6,
          "target": {
            "node": 6,
            "path": "translation"
          }
        },
        {
          "sampler": 7,
          "target": {
            "node": 6,
            "path": "rotation"
          }
        },
        {
          "sampler": 8,
          "target": {
            "node": 6,
            "path": "scale"
          }
        },
        {
          "sampler": 9,
          "target": {
            "node": 5,
            "path": "translation"
          }
        },
        {
          "sampler": 10,
          "target": {
            "node": 5,
            "path": "rotation"
          }
        },
        {
          "sampler": 11,
          "target": {
            "node": 5,
            "path": "scale"
          }
        },
        {
          "sampler": 12,
          "target": {
            "node": 0,
            "path": "translation"
          }
        },
        {
          "sampler": 13,
          "target": {
            "node": 0,
            "path": "rotation"
          }
        },
        {
          "sampler": 14,
          "target": {
            "node": 0,
            "path": "scale"
          }
        },
        {
          "sampler": 15,
          "target": {
            "node": 2,
            "path": "translation"
          }
        },
        {
          "sampler": 16,
          "target": {
            "node": 2,
            "path": "rotation"
          }
        },
        {
          "sampler": 17,
          "target": {
            "node": 2,
            "path": "scale"
          }
        },
        {
          "sampler": 18,
          "target": {
            "node": 1,
            "path": "translation"
          }
        },
        {
          "sampler": 19,
          "target": {
            "node": 1,
            "path": "rotation"
          }
        },
        {
          "sampler": 20,
          "target": {
            "node": 1,
            "path": "scale"
          }
        },
        {
          "sampler": 21,
          "target": {
            "node": 4,
            "path": "translation"
          }
        },
        {
          "sampler": 22,
          "target": {
            "node": 4,
            "path": "rotation"
          }
        },
        {
          "sampler": 23,
          "target": {
            "node": 4,
            "path": "scale"
          }
        },
        {
          "sampler": 24,
          "target": {
            "node": 3,
            "path": "translation"
          }
        },
        {
          "sampler": 25,
          "target": {
            "node": 3,
            "path": "rotation"
          }
        },
        {
          "sampler": 26,
          "target": {
            "node": 3,
            "path": "scale"
          }
        },
        {
          "sampler": 27,
          "target": {
            "node": 8,
            "path": "translation"
          }
        },
        {
          "sampler": 28,
          "target": {
            "node": 8,
            "path": "rotation"
          }
        },
        {
          "sampler": 29,
          "target": {
            "node": 8,
            "path": "scale"
          }
        },
        {
          "sampler": 30,
          "target": {
            "node": 7,
            "path": "translation"
          }
        },
        {
          "sampler": 31,
          "target": {
            "node": 7,
            "path": "rotation"
          }
        },
        {
          "sampler": 32,
          "target": {
            "node": 7,
            "path": "scale"
          }
        },
        {
          "sampler": 33,
          "target": {
            "node": 10,
            "path": "translation"
          }
        },
        {
          "sampler": 34,
          "target": {
            "node": 10,
            "path": "rotation"
          }
        },
        {
          "sampler": 35,
          "target": {
            "node": 10,
            "path": "scale"
          }
        },
        {
          "sampler": 36,
          "target": {
            "node": 9,
            "path": "translation"
          }
        },
        {
          "sampler": 37,
          "target": {
            "node": 9,
            "path": "rotation"
          }
        },
        {
          "sampler": 38,
          "target": {
            "node": 9,
            "path": "scale"
          }
        }
      ],
      "name": "wave",
      "samplers": [
        {
          "input": 13,
          "interpolation": "STEP",
          "output": 173
        },
        {
          "input": 13,
          "interpolation": "STEP",
          "output": 174
        },
        {
          "input": 13,
          "interpolation": "STEP",
          "output": 175
        },
        {
          "input": 13,
          "interpolation": "STEP",
          "output": 176
        },
        {
          "input": 13,
          "interpolation": "STEP",
          "output": 177
        },
        {
          "input": 13,
          "interpolation": "STEP",
          "output": 178
        },
        {
          "input": 13,
          "interpolation": "STEP",
          "output": 179
        },
        {
          "input": 13,
          "interpolation": "STEP",
          "output": 180
        },
        {
          "input": 13,
          "interpolation": "STEP",
          "output": 181
        },
        {
          "input": 13,
          "interpolation": "STEP",
          "output": 182
        },
        {
          "input": 27,
          "interpolation": "LINEAR",
          "output": 183
        },
        {
          "input": 13,
          "interpolation": "STEP",
          "output": 184
        },
        {
          "input": 13,
          "interpolation": "LINEAR",
          "output": 185
        },
        {
          "input": 27,
          "interpolation": "LINEAR",
          "output": 186
        },
        {
          "input": 13,
          "interpolation": "LINEAR",
          "output": 187
        },
        {
          "input": 13,
          "interpolation": "LINEAR",
          "output": 188
        },
        {
          "input": 27,
          "interpolation": "LINEAR",
          "output": 189
        },
        {
          "input": 13,
          "interpolation": "STEP",
          "output": 190
        },
        {
          "input": 13,
          "interpolation": "LINEAR",
          "output": 191
        },
        {
          "input": 13,
          "interpolation": "LINEAR",
          "output": 192
        },
        {
          "input": 13,
          "interpolation": "STEP",
          "output": 193
        },
        {
          "input": 13,
          "interpolation": "LINEAR",
          "output": 194
        },
        {
          "input": 27,
          "interpolation": "LINEAR",
          "output": 195
        },
        {
          "input": 13,
          "interpolation": "STEP",
          "output": 196
        },
        {
          "input": 13,
          "interpolation": "LINEAR",
          "output": 197
        },
        {
          "input": 13,
          "interpolation": "LINEAR",
          "output": 198
        },
        {
          "input": 13,
          "interpolation": "STEP",
          "output": 199
        },
        {
          "input": 13,
          "interpolation": "STEP",
          "output": 200
        },
        {
          "input": 13,
          "interpolation": "STEP",
          "output": 201
        },
        {
          "input": 13,
          "interpolation": "STEP",
          "output": 202
        },
        {
          "input": 13,
          "interpolation": "STEP",
          "output": 203
        },
        {
          "input": 13,
          "interpolation": "STEP",
          "output": 204
        },
        {
          "input": 13,
          "interpolation": "STEP",
          "output": 205
        },
        {
          "input": 13,
          "interpolation": "STEP",
          "output": 206
        },
        {
          "input": 13,
          "interpolation": "STEP",
          "output": 207
        },
        {
          "input": 13,
          "interpolation": "STEP",
          "output": 208
        },
        {
          "input": 13,
          "interpolation": "STEP",
          "output": 209
        },
        {
          "input": 13,
          "interpolation": "STEP",
          "output": 210
        },
        {
          "input": 13,
          "interpolation": "STEP",
          "output": 211
        }
      ]
    }
  ],
  "materials": [
    {
      "alphaMode": "OPAQUE",
      "doubleSided": true,
      "extensions": {
        "KHR_materials_specular": {
          "specularFactor": 0
        },
        "KHR_materials_ior": {
          "ior": 1.4500000476837158
        }
      },
      "name": "char.005",
      "pbrMetallicRoughness": {
        "baseColorFactor": [0.5, 0.5, 0.5, 1],
        "baseColorTexture": {
          "index": 0
        },
        "metallicFactor": 0,
        "roughnessFactor": 0.699999988079071
      }
    },
    {
      "alphaMode": "BLEND",
      "doubleSided": true,
      "extensions": {
        "KHR_materials_specular": {
          "specularFactor": 0
        },
        "KHR_materials_ior": {
          "ior": 1.4500000476837158
        }
      },
      "name": "char_alpha.005",
      "pbrMetallicRoughness": {
        "baseColorFactor": [0.5, 0.5, 0.5, 1],
        "baseColorTexture": {
          "index": 1
        },
        "metallicFactor": 0,
        "roughnessFactor": 0.699999988079071
      }
    }
  ],
  "meshes": [
    {
      "name": "Cube",
      "primitives": [
        {
          "attributes": {
            "POSITION": 0,
            "NORMAL": 1,
            "TEXCOORD_0": 2,
            "JOINTS_0": 3,
            "WEIGHTS_0": 4
          },
          "indices": 5,
          "material": 0
        }
      ]
    },
    {
      "name": "Cube.011",
      "primitives": [
        {
          "attributes": {
            "POSITION": 7,
            "NORMAL": 8,
            "TEXCOORD_0": 9,
            "JOINTS_0": 10,
            "WEIGHTS_0": 11
          },
          "indices": 12,
          "material": 1
        }
      ]
    }
  ],
  "textures": [
    {
      "sampler": 0,
      "source": 0
    },
    {
      "sampler": 0,
      "source": 0
    }
  ],
  "images": [
    {
      "mimeType": "image/png",
      "name": "alex",
      "uri": "alex.png"
    }
  ],
  "skins": [
    {
      "inverseBindMatrices": 6,
      "joints": [12, 11, 6, 5, 0, 2, 1, 4, 3, 8, 7, 10, 9],
      "name": "SimplePlayer.arma"
    }
  ],
  "accessors": [
    {
      "bufferView": 0,
      "componentType": 5126,
      "count": 2665,
      "max": [0.4343675374984741, 1.997973918914795, 4.1287970542907715],
      "min": [-0.43425682187080383, 0.011973707005381584, 3.6325135231018066],
      "type": "VEC3"
    },
    {
      "bufferView": 1,
      "componentType": 5126,
      "count": 2665,
      "type": "VEC3"
    },
    {
      "bufferView": 2,
      "componentType": 5126,
      "count": 2665,
      "type": "VEC2"
    },
    {
      "bufferView": 3,
      "componentType": 5121,
      "count": 2665,
      "type": "VEC4"
    },
    {
      "bufferView": 4,
      "componentType": 5126,
      "count": 2665,
      "type": "VEC4"
    },
    {
      "bufferView": 5,
      "componentType": 5123,
      "count": 12096,
      "type": "SCALAR"
    },
    {
      "bufferView": 6,
      "componentType": 5126,
      "count": 13,
      "type": "MAT4"
    },
    {
      "bufferView": 7,
      "componentType": 5126,
      "count": 2660,
      "max": [0.43746909499168396, 2.01937198638916, 4.147332191467285],
      "min": [-0.4373585879802704, 0.004529443569481373, 3.6118717193603516],
      "type": "VEC3"
    },
    {
      "bufferView": 8,
      "componentType": 5126,
      "count": 2660,
      "type": "VEC3"
    },
    {
      "bufferView": 9,
      "componentType": 5126,
      "count": 2660,
      "type": "VEC2"
    },
    {
      "bufferView": 10,
      "componentType": 5121,
      "count": 2660,
      "type": "VEC4"
    },
    {
      "bufferView": 11,
      "componentType": 5126,
      "count": 2660,
      "type": "VEC4"
    },
    {
      "bufferView": 12,
      "componentType": 5123,
      "count": 12096,
      "type": "SCALAR"
    },
    {
      "bufferView": 13,
      "componentType": 5126,
      "count": 2,
      "max": [0.4166666666666667],
      "min": [0],
      "type": "SCALAR"
    },
    {
      "bufferView": 14,
      "componentType": 5126,
      "count": 2,
      "type": "VEC3"
    },
    {
      "bufferView": 15,
      "componentType": 5126,
      "count": 2,
      "type": "VEC4"
    },
    {
      "bufferView": 16,
      "componentType": 5126,
      "count": 2,
      "type": "VEC3"
    },
    {
      "bufferView": 17,
      "componentType": 5126,
      "count": 2,
      "type": "VEC3"
    },
    {
      "bufferView": 18,
      "componentType": 5126,
      "count": 2,
      "type": "VEC4"
    },
    {
      "bufferView": 19,
      "componentType": 5126,
      "count": 2,
      "type": "VEC3"
    },
    {
      "bufferView": 20,
      "componentType": 5126,
      "count": 2,
      "type": "VEC3"
    },
    {
      "bufferView": 21,
      "componentType": 5126,
      "count": 2,
      "type": "VEC4"
    },
    {
      "bufferView": 22,
      "componentType": 5126,
      "count": 2,
      "type": "VEC3"
    },
    {
      "bufferView": 23,
      "componentType": 5126,
      "count": 2,
      "type": "VEC3"
    },
    {
      "bufferView": 24,
      "componentType": 5126,
      "count": 2,
      "type": "VEC4"
    },
    {
      "bufferView": 25,
      "componentType": 5126,
      "count": 2,
      "type": "VEC3"
    },
    {
      "bufferView": 26,
      "componentType": 5126,
      "count": 2,
      "type": "VEC3"
    },
    {
      "bufferView": 27,
      "componentType": 5126,
      "count": 11,
      "max": [0.4166666666666667],
      "min": [0],
      "type": "SCALAR"
    },
    {
      "bufferView": 28,
      "componentType": 5126,
      "count": 11,
      "type": "VEC4"
    },
    {
      "bufferView": 29,
      "componentType": 5126,
      "count": 2,
      "type": "VEC3"
    },
    {
      "bufferView": 30,
      "componentType": 5126,
      "count": 2,
      "type": "VEC3"
    },
    {
      "bufferView": 31,
      "componentType": 5126,
      "count": 11,
      "type": "VEC4"
    },
    {
      "bufferView": 32,
      "componentType": 5126,
      "count": 2,
      "type": "VEC3"
    },
    {
      "bufferView": 33,
      "componentType": 5126,
      "count": 2,
      "type": "VEC3"
    },
    {
      "bufferView": 34,
      "componentType": 5126,
      "count": 11,
      "type": "VEC4"
    },
    {
      "bufferView": 35,
      "componentType": 5126,
      "count": 2,
      "type": "VEC3"
    },
    {
      "bufferView": 36,
      "componentType": 5126,
      "count": 2,
      "type": "VEC3"
    },
    {
      "bufferView": 37,
      "componentType": 5126,
      "count": 11,
      "type": "VEC4"
    },
    {
      "bufferView": 38,
      "componentType": 5126,
      "count": 2,
      "type": "VEC3"
    },
    {
      "bufferView": 39,
      "componentType": 5126,
      "count": 2,
      "type": "VEC3"
    },
    {
      "bufferView": 40,
      "componentType": 5126,
      "count": 2,
      "type": "VEC4"
    },
    {
      "bufferView": 41,
      "componentType": 5126,
      "count": 2,
      "type": "VEC3"
    },
    {
      "bufferView": 42,
      "componentType": 5126,
      "count": 2,
      "type": "VEC3"
    },
    {
      "bufferView": 43,
      "componentType": 5126,
      "count": 2,
      "type": "VEC4"
    },
    {
      "bufferView": 44,
      "componentType": 5126,
      "count": 2,
      "type": "VEC3"
    },
    {
      "bufferView": 45,
      "componentType": 5126,
      "count": 2,
      "type": "VEC3"
    },
    {
      "bufferView": 46,
      "componentType": 5126,
      "count": 2,
      "type": "VEC4"
    },
    {
      "bufferView": 47,
      "componentType": 5126,
      "count": 2,
      "type": "VEC3"
    },
    {
      "bufferView": 48,
      "componentType": 5126,
      "count": 2,
      "type": "VEC3"
    },
    {
      "bufferView": 49,
      "componentType": 5126,
      "count": 2,
      "type": "VEC4"
    },
    {
      "bufferView": 50,
      "componentType": 5126,
      "count": 2,
      "type": "VEC3"
    },
    {
      "bufferView": 51,
      "componentType": 5126,
      "count": 2,
      "type": "VEC3"
    },
    {
      "bufferView": 52,
      "componentType": 5126,
      "count": 2,
      "type": "VEC4"
    },
    {
      "bufferView": 53,
      "componentType": 5126,
      "count": 2,
      "type": "VEC3"
    },
    {
      "bufferView": 54,
      "componentType": 5126,
      "count": 2,
      "max": [0.4166666666666667],
      "min": [0.041666666666666664],
      "type": "SCALAR"
    },
    {
      "bufferView": 55,
      "componentType": 5126,
      "count": 2,
      "type": "VEC3"
    },
    {
      "bufferView": 56,
      "componentType": 5126,
      "count": 2,
      "type": "VEC4"
    },
    {
      "bufferView": 57,
      "componentType": 5126,
      "count": 2,
      "type": "VEC3"
    },
    {
      "bufferView": 58,
      "componentType": 5126,
      "count": 2,
      "type": "VEC3"
    },
    {
      "bufferView": 59,
      "componentType": 5126,
      "count": 2,
      "type": "VEC4"
    },
    {
      "bufferView": 60,
      "componentType": 5126,
      "count": 2,
      "type": "VEC3"
    },
    {
      "bufferView": 61,
      "componentType": 5126,
      "count": 2,
      "type": "VEC3"
    },
    {
      "bufferView": 62,
      "componentType": 5126,
      "count": 2,
      "type": "VEC4"
    },
    {
      "bufferView": 63,
      "componentType": 5126,
      "count": 2,
      "type": "VEC3"
    },
    {
      "bufferView": 64,
      "componentType": 5126,
      "count": 2,
      "type": "VEC3"
    },
    {
      "bufferView": 65,
      "componentType": 5126,
      "count": 2,
      "type": "VEC4"
    },
    {
      "bufferView": 66,
      "componentType": 5126,
      "count": 2,
      "type": "VEC3"
    },
    {
      "bufferView": 67,
      "componentType": 5126,
      "count": 2,
      "type": "VEC3"
    },
    {
      "bufferView": 68,
      "componentType": 5126,
      "count": 10,
      "max": [0.4166666666666667],
      "min": [0.041666666666666664],
      "type": "SCALAR"
    },
    {
      "bufferView": 69,
      "componentType": 5126,
      "count": 10,
      "type": "VEC4"
    },
    {
      "bufferView": 70,
      "componentType": 5126,
      "count": 2,
      "type": "VEC3"
    },
    {
      "bufferView": 71,
      "componentType": 5126,
      "count": 2,
      "type": "VEC3"
    },
    {
      "bufferView": 72,
      "componentType": 5126,
      "count": 10,
      "type": "VEC4"
    },
    {
      "bufferView": 73,
      "componentType": 5126,
      "count": 2,
      "type": "VEC3"
    },
    {
      "bufferView": 74,
      "componentType": 5126,
      "count": 2,
      "type": "VEC3"
    },
    {
      "bufferView": 75,
      "componentType": 5126,
      "count": 2,
      "type": "VEC4"
    },
    {
      "bufferView": 76,
      "componentType": 5126,
      "count": 2,
      "type": "VEC3"
    },
    {
      "bufferView": 77,
      "componentType": 5126,
      "count": 2,
      "type": "VEC3"
    },
    {
      "bufferView": 78,
      "componentType": 5126,
      "count": 10,
      "type": "VEC4"
    },
    {
      "bufferView": 79,
      "componentType": 5126,
      "count": 2,
      "type": "VEC3"
    },
    {
      "bufferView": 80,
      "componentType": 5126,
      "count": 2,
      "type": "VEC3"
    },
    {
      "bufferView": 81,
      "componentType": 5126,
      "count": 2,
      "type": "VEC4"
    },
    {
      "bufferView": 82,
      "componentType": 5126,
      "count": 2,
      "type": "VEC3"
    },
    {
      "bufferView": 83,
      "componentType": 5126,
      "count": 2,
      "type": "VEC3"
    },
    {
      "bufferView": 84,
      "componentType": 5126,
      "count": 2,
      "type": "VEC4"
    },
    {
      "bufferView": 85,
      "componentType": 5126,
      "count": 2,
      "type": "VEC3"
    },
    {
      "bufferView": 86,
      "componentType": 5126,
      "count": 2,
      "type": "VEC3"
    },
    {
      "bufferView": 87,
      "componentType": 5126,
      "count": 2,
      "type": "VEC4"
    },
    {
      "bufferView": 88,
      "componentType": 5126,
      "count": 2,
      "type": "VEC3"
    },
    {
      "bufferView": 89,
      "componentType": 5126,
      "count": 2,
      "type": "VEC3"
    },
    {
      "bufferView": 90,
      "componentType": 5126,
      "count": 2,
      "type": "VEC4"
    },
    {
      "bufferView": 91,
      "componentType": 5126,
      "count": 2,
      "type": "VEC3"
    },
    {
      "bufferView": 92,
      "componentType": 5126,
      "count": 2,
      "type": "VEC3"
    },
    {
      "bufferView": 93,
      "componentType": 5126,
      "count": 2,
      "type": "VEC4"
    },
    {
      "bufferView": 94,
      "componentType": 5126,
      "count": 2,
      "type": "VEC3"
    },
    {
      "bufferView": 95,
      "componentType": 5126,
      "count": 2,
      "type": "VEC3"
    },
    {
      "bufferView": 96,
      "componentType": 5126,
      "count": 2,
      "type": "VEC4"
    },
    {
      "bufferView": 97,
      "componentType": 5126,
      "count": 2,
      "type": "VEC3"
    },
    {
      "bufferView": 98,
      "componentType": 5126,
      "count": 2,
      "type": "VEC3"
    },
    {
      "bufferView": 99,
      "componentType": 5126,
      "count": 2,
      "type": "VEC4"
    },
    {
      "bufferView": 100,
      "componentType": 5126,
      "count": 2,
      "type": "VEC3"
    },
    {
      "bufferView": 101,
      "componentType": 5126,
      "count": 2,
      "type": "VEC3"
    },
    {
      "bufferView": 102,
      "componentType": 5126,
      "count": 2,
      "type": "VEC4"
    },
    {
      "bufferView": 103,
      "componentType": 5126,
      "count": 2,
      "type": "VEC3"
    },
    {
      "bufferView": 104,
      "componentType": 5126,
      "count": 2,
      "type": "VEC3"
    },
    {
      "bufferView": 105,
      "componentType": 5126,
      "count": 2,
      "type": "VEC4"
    },
    {
      "bufferView": 106,
      "componentType": 5126,
      "count": 2,
      "type": "VEC3"
    },
    {
      "bufferView": 107,
      "componentType": 5126,
      "count": 2,
      "type": "VEC3"
    },
    {
      "bufferView": 108,
      "componentType": 5126,
      "count": 11,
      "type": "VEC4"
    },
    {
      "bufferView": 109,
      "componentType": 5126,
      "count": 2,
      "type": "VEC3"
    },
    {
      "bufferView": 110,
      "componentType": 5126,
      "count": 2,
      "type": "VEC3"
    },
    {
      "bufferView": 111,
      "componentType": 5126,
      "count": 11,
      "type": "VEC4"
    },
    {
      "bufferView": 112,
      "componentType": 5126,
      "count": 2,
      "type": "VEC3"
    },
    {
      "bufferView": 113,
      "componentType": 5126,
      "count": 2,
      "type": "VEC3"
    },
    {
      "bufferView": 114,
      "componentType": 5126,
      "count": 2,
      "type": "VEC4"
    },
    {
      "bufferView": 115,
      "componentType": 5126,
      "count": 2,
      "type": "VEC3"
    },
    {
      "bufferView": 116,
      "componentType": 5126,
      "count": 2,
      "type": "VEC3"
    },
    {
      "bufferView": 117,
      "componentType": 5126,
      "count": 11,
      "type": "VEC4"
    },
    {
      "bufferView": 118,
      "componentType": 5126,
      "count": 2,
      "type": "VEC3"
    },
    {
      "bufferView": 119,
      "componentType": 5126,
      "count": 2,
      "type": "VEC3"
    },
    {
      "bufferView": 120,
      "componentType": 5126,
      "count": 2,
      "type": "VEC4"
    },
    {
      "bufferView": 121,
      "componentType": 5126,
      "count": 2,
      "type": "VEC3"
    },
    {
      "bufferView": 122,
      "componentType": 5126,
      "count": 2,
      "type": "VEC3"
    },
    {
      "bufferView": 123,
      "componentType": 5126,
      "count": 2,
      "type": "VEC4"
    },
    {
      "bufferView": 124,
      "componentType": 5126,
      "count": 2,
      "type": "VEC3"
    },
    {
      "bufferView": 125,
      "componentType": 5126,
      "count": 2,
      "type": "VEC3"
    },
    {
      "bufferView": 126,
      "componentType": 5126,
      "count": 2,
      "type": "VEC4"
    },
    {
      "bufferView": 127,
      "componentType": 5126,
      "count": 2,
      "type": "VEC3"
    },
    {
      "bufferView": 128,
      "componentType": 5126,
      "count": 2,
      "type": "VEC3"
    },
    {
      "bufferView": 129,
      "componentType": 5126,
      "count": 2,
      "type": "VEC4"
    },
    {
      "bufferView": 130,
      "componentType": 5126,
      "count": 2,
      "type": "VEC3"
    },
    {
      "bufferView": 131,
      "componentType": 5126,
      "count": 2,
      "type": "VEC3"
    },
    {
      "bufferView": 132,
      "componentType": 5126,
      "count": 2,
      "type": "VEC4"
    },
    {
      "bufferView": 133,
      "componentType": 5126,
      "count": 2,
      "type": "VEC3"
    },
    {
      "bufferView": 134,
      "componentType": 5126,
      "count": 2,
      "type": "VEC3"
    },
    {
      "bufferView": 135,
      "componentType": 5126,
      "count": 2,
      "type": "VEC4"
    },
    {
      "bufferView": 136,
      "componentType": 5126,
      "count": 2,
      "type": "VEC3"
    },
    {
      "bufferView": 137,
      "componentType": 5126,
      "count": 2,
      "type": "VEC3"
    },
    {
      "bufferView": 138,
      "componentType": 5126,
      "count": 2,
      "type": "VEC4"
    },
    {
      "bufferView": 139,
      "componentType": 5126,
      "count": 2,
      "type": "VEC3"
    },
    {
      "bufferView": 140,
      "componentType": 5126,
      "count": 2,
      "type": "VEC3"
    },
    {
      "bufferView": 141,
      "componentType": 5126,
      "count": 2,
      "type": "VEC4"
    },
    {
      "bufferView": 142,
      "componentType": 5126,
      "count": 2,
      "type": "VEC3"
    },
    {
      "bufferView": 143,
      "componentType": 5126,
      "count": 2,
      "type": "VEC3"
    },
    {
      "bufferView": 144,
      "componentType": 5126,
      "count": 2,
      "type": "VEC4"
    },
    {
      "bufferView": 145,
      "componentType": 5126,
      "count": 2,
      "type": "VEC3"
    },
    {
      "bufferView": 146,
      "componentType": 5126,
      "count": 2,
      "type": "VEC3"
    },
    {
      "bufferView": 147,
      "componentType": 5126,
      "count": 2,
      "type": "VEC4"
    },
    {
      "bufferView": 148,
      "componentType": 5126,
      "count": 2,
      "type": "VEC3"
    },
    {
      "bufferView": 149,
      "componentType": 5126,
      "count": 2,
      "type": "VEC3"
    },
    {
      "bufferView": 150,
      "componentType": 5126,
      "count": 11,
      "type": "VEC4"
    },
    {
      "bufferView": 151,
      "componentType": 5126,
      "count": 2,
      "type": "VEC3"
    },
    {
      "bufferView": 152,
      "componentType": 5126,
      "count": 2,
      "type": "VEC3"
    },
    {
      "bufferView": 153,
      "componentType": 5126,
      "count": 2,
      "type": "VEC4"
    },
    {
      "bufferView": 154,
      "componentType": 5126,
      "count": 2,
      "type": "VEC3"
    },
    {
      "bufferView": 155,
      "componentType": 5126,
      "count": 2,
      "type": "VEC3"
    },
    {
      "bufferView": 156,
      "componentType": 5126,
      "count": 11,
      "type": "VEC4"
    },
    {
      "bufferView": 157,
      "componentType": 5126,
      "count": 2,
      "type": "VEC3"
    },
    {
      "bufferView": 158,
      "componentType": 5126,
      "count": 2,
      "type": "VEC3"
    },
    {
      "bufferView": 159,
      "componentType": 5126,
      "count": 11,
      "type": "VEC4"
    },
    {
      "bufferView": 160,
      "componentType": 5126,
      "count": 2,
      "type": "VEC3"
    },
    {
      "bufferView": 161,
      "componentType": 5126,
      "count": 2,
      "type": "VEC3"
    },
    {
      "bufferView": 162,
      "componentType": 5126,
      "count": 2,
      "type": "VEC4"
    },
    {
      "bufferView": 163,
      "componentType": 5126,
      "count": 2,
      "type": "VEC3"
    },
    {
      "bufferView": 164,
      "componentType": 5126,
      "count": 2,
      "type": "VEC3"
    },
    {
      "bufferView": 165,
      "componentType": 5126,
      "count": 2,
      "type": "VEC4"
    },
    {
      "bufferView": 166,
      "componentType": 5126,
      "count": 2,
      "type": "VEC3"
    },
    {
      "bufferView": 167,
      "componentType": 5126,
      "count": 2,
      "type": "VEC3"
    },
    {
      "bufferView": 168,
      "componentType": 5126,
      "count": 2,
      "type": "VEC4"
    },
    {
      "bufferView": 169,
      "componentType": 5126,
      "count": 2,
      "type": "VEC3"
    },
    {
      "bufferView": 170,
      "componentType": 5126,
      "count": 2,
      "type": "VEC3"
    },
    {
      "bufferView": 171,
      "componentType": 5126,
      "count": 2,
      "type": "VEC4"
    },
    {
      "bufferView": 172,
      "componentType": 5126,
      "count": 2,
      "type": "VEC3"
    },
    {
      "bufferView": 173,
      "componentType": 5126,
      "count": 2,
      "type": "VEC3"
    },
    {
      "bufferView": 174,
      "componentType": 5126,
      "count": 2,
      "type": "VEC4"
    },
    {
      "bufferView": 175,
      "componentType": 5126,
      "count": 2,
      "type": "VEC3"
    },
    {
      "bufferView": 176,
      "componentType": 5126,
      "count": 2,
      "type": "VEC3"
    },
    {
      "bufferView": 177,
      "componentType": 5126,
      "count": 2,
      "type": "VEC4"
    },
    {
      "bufferView": 178,
      "componentType": 5126,
      "count": 2,
      "type": "VEC3"
    },
    {
      "bufferView": 179,
      "componentType": 5126,
      "count": 2,
      "type": "VEC3"
    },
    {
      "bufferView": 180,
      "componentType": 5126,
      "count": 2,
      "type": "VEC4"
    },
    {
      "bufferView": 181,
      "componentType": 5126,
      "count": 2,
      "type": "VEC3"
    },
    {
      "bufferView": 182,
      "componentType": 5126,
      "count": 2,
      "type": "VEC3"
    },
    {
      "bufferView": 183,
      "componentType": 5126,
      "count": 11,
      "type": "VEC4"
    },
    {
      "bufferView": 184,
      "componentType": 5126,
      "count": 2,
      "type": "VEC3"
    },
    {
      "bufferView": 185,
      "componentType": 5126,
      "count": 2,
      "type": "VEC3"
    },
    {
      "bufferView": 186,
      "componentType": 5126,
      "count": 11,
      "type": "VEC4"
    },
    {
      "bufferView": 187,
      "componentType": 5126,
      "count": 2,
      "type": "VEC3"
    },
    {
      "bufferView": 188,
      "componentType": 5126,
      "count": 2,
      "type": "VEC3"
    },
    {
      "bufferView": 189,
      "componentType": 5126,
      "count": 11,
      "type": "VEC4"
    },
    {
      "bufferView": 190,
      "componentType": 5126,
      "count": 2,
      "type": "VEC3"
    },
    {
      "bufferView": 191,
      "componentType": 5126,
      "count": 2,
      "type": "VEC3"
    },
    {
      "bufferView": 192,
      "componentType": 5126,
      "count": 2,
      "type": "VEC4"
    },
    {
      "bufferView": 193,
      "componentType": 5126,
      "count": 2,
      "type": "VEC3"
    },
    {
      "bufferView": 194,
      "componentType": 5126,
      "count": 2,
      "type": "VEC3"
    },
    {
      "bufferView": 195,
      "componentType": 5126,
      "count": 11,
      "type": "VEC4"
    },
    {
      "bufferView": 196,
      "componentType": 5126,
      "count": 2,
      "type": "VEC3"
    },
    {
      "bufferView": 197,
      "componentType": 5126,
      "count": 2,
      "type": "VEC3"
    },
    {
      "bufferView": 198,
      "componentType": 5126,
      "count": 2,
      "type": "VEC4"
    },
    {
      "bufferView": 199,
      "componentType": 5126,
      "count": 2,
      "type": "VEC3"
    },
    {
      "bufferView": 200,
      "componentType": 5126,
      "count": 2,
      "type": "VEC3"
    },
    {
      "bufferView": 201,
      "componentType": 5126,
      "count": 2,
      "type": "VEC4"
    },
    {
      "bufferView": 202,
      "componentType": 5126,
      "count": 2,
      "type": "VEC3"
    },
    {
      "bufferView": 203,
      "componentType": 5126,
      "count": 2,
      "type": "VEC3"
    },
    {
      "bufferView": 204,
      "componentType": 5126,
      "count": 2,
      "type": "VEC4"
    },
    {
      "bufferView": 205,
      "componentType": 5126,
      "count": 2,
      "type": "VEC3"
    },
    {
      "bufferView": 206,
      "componentType": 5126,
      "count": 2,
      "type": "VEC3"
    },
    {
      "bufferView": 207,
      "componentType": 5126,
      "count": 2,
      "type": "VEC4"
    },
    {
      "bufferView": 208,
      "componentType": 5126,
      "count": 2,
      "type": "VEC3"
    },
    {
      "bufferView": 209,
      "componentType": 5126,
      "count": 2,
      "type": "VEC3"
    },
    {
      "bufferView": 210,
      "componentType": 5126,
      "count": 2,
      "type": "VEC4"
    },
    {
      "bufferView": 211,
      "componentType": 5126,
      "count": 2,
      "type": "VEC3"
    }
  ],
  "bufferViews": [
    {
      "buffer": 0,
      "byteLength": 31980,
      "byteOffset": 0,
      "target": 34962
    },
    {
      "buffer": 0,
      "byteLength": 31980,
      "byteOffset": 31980,
      "target": 34962
    },
    {
      "buffer": 0,
      "byteLength": 21320,
      "byteOffset": 63960,
      "target": 34962
    },
    {
      "buffer": 0,
      "byteLength": 10660,
      "byteOffset": 85280,
      "target": 34962
    },
    {
      "buffer": 0,
      "byteLength": 42640,
      "byteOffset": 95940,
      "target": 34962
    },
    {
      "buffer": 0,
      "byteLength": 24192,
      "byteOffset": 138580,
      "target": 34963
    },
    {
      "buffer": 0,
      "byteLength": 832,
      "byteOffset": 162772
    },
    {
      "buffer": 0,
      "byteLength": 31920,
      "byteOffset": 163604,
      "target": 34962
    },
    {
      "buffer": 0,
      "byteLength": 31920,
      "byteOffset": 195524,
      "target": 34962
    },
    {
      "buffer": 0,
      "byteLength": 21280,
      "byteOffset": 227444,
      "target": 34962
    },
    {
      "buffer": 0,
      "byteLength": 10640,
      "byteOffset": 248724,
      "target": 34962
    },
    {
      "buffer": 0,
      "byteLength": 42560,
      "byteOffset": 259364,
      "target": 34962
    },
    {
      "buffer": 0,
      "byteLength": 24192,
      "byteOffset": 301924,
      "target": 34963
    },
    {
      "buffer": 0,
      "byteLength": 8,
      "byteOffset": 326116
    },
    {
      "buffer": 0,
      "byteLength": 24,
      "byteOffset": 326124
    },
    {
      "buffer": 0,
      "byteLength": 32,
      "byteOffset": 326148
    },
    {
      "buffer": 0,
      "byteLength": 24,
      "byteOffset": 326180
    },
    {
      "buffer": 0,
      "byteLength": 24,
      "byteOffset": 326204
    },
    {
      "buffer": 0,
      "byteLength": 32,
      "byteOffset": 326228
    },
    {
      "buffer": 0,
      "byteLength": 24,
      "byteOffset": 326260
    },
    {
      "buffer": 0,
      "byteLength": 24,
      "byteOffset": 326284
    },
    {
      "buffer": 0,
      "byteLength": 32,
      "byteOffset": 326308
    },
    {
      "buffer": 0,
      "byteLength": 24,
      "byteOffset": 326340
    },
    {
      "buffer": 0,
      "byteLength": 24,
      "byteOffset": 326364
    },
    {
      "buffer": 0,
      "byteLength": 32,
      "byteOffset": 326388
    },
    {
      "buffer": 0,
      "byteLength": 24,
      "byteOffset": 326420
    },
    {
      "buffer": 0,
      "byteLength": 24,
      "byteOffset": 326444
    },
    {
      "buffer": 0,
      "byteLength": 44,
      "byteOffset": 326468
    },
    {
      "buffer": 0,
      "byteLength": 176,
      "byteOffset": 326512
    },
    {
      "buffer": 0,
      "byteLength": 24,
      "byteOffset": 326688
    },
    {
      "buffer": 0,
      "byteLength": 24,
      "byteOffset": 326712
    },
    {
      "buffer": 0,
      "byteLength": 176,
      "byteOffset": 326736
    },
    {
      "buffer": 0,
      "byteLength": 24,
      "byteOffset": 326912
    },
    {
      "buffer": 0,
      "byteLength": 24,
      "byteOffset": 326936
    },
    {
      "buffer": 0,
      "byteLength": 176,
      "byteOffset": 326960
    },
    {
      "buffer": 0,
      "byteLength": 24,
      "byteOffset": 327136
    },
    {
      "buffer": 0,
      "byteLength": 24,
      "byteOffset": 327160
    },
    {
      "buffer": 0,
      "byteLength": 176,
      "byteOffset": 327184
    },
    {
      "buffer": 0,
      "byteLength": 24,
      "byteOffset": 327360
    },
    {
      "buffer": 0,
      "byteLength": 24,
      "byteOffset": 327384
    },
    {
      "buffer": 0,
      "byteLength": 32,
      "byteOffset": 327408
    },
    {
      "buffer": 0,
      "byteLength": 24,
      "byteOffset": 327440
    },
    {
      "buffer": 0,
      "byteLength": 24,
      "byteOffset": 327464
    },
    {
      "buffer": 0,
      "byteLength": 32,
      "byteOffset": 327488
    },
    {
      "buffer": 0,
      "byteLength": 24,
      "byteOffset": 327520
    },
    {
      "buffer": 0,
      "byteLength": 24,
      "byteOffset": 327544
    },
    {
      "buffer": 0,
      "byteLength": 32,
      "byteOffset": 327568
    },
    {
      "buffer": 0,
      "byteLength": 24,
      "byteOffset": 327600
    },
    {
      "buffer": 0,
      "byteLength": 24,
      "byteOffset": 327624
    },
    {
      "buffer": 0,
      "byteLength": 32,
      "byteOffset": 327648
    },
    {
      "buffer": 0,
      "byteLength": 24,
      "byteOffset": 327680
    },
    {
      "buffer": 0,
      "byteLength": 24,
      "byteOffset": 327704
    },
    {
      "buffer": 0,
      "byteLength": 32,
      "byteOffset": 327728
    },
    {
      "buffer": 0,
      "byteLength": 24,
      "byteOffset": 327760
    },
    {
      "buffer": 0,
      "byteLength": 8,
      "byteOffset": 327784
    },
    {
      "buffer": 0,
      "byteLength": 24,
      "byteOffset": 327792
    },
    {
      "buffer": 0,
      "byteLength": 32,
      "byteOffset": 327816
    },
    {
      "buffer": 0,
      "byteLength": 24,
      "byteOffset": 327848
    },
    {
      "buffer": 0,
      "byteLength": 24,
      "byteOffset": 327872
    },
    {
      "buffer": 0,
      "byteLength": 32,
      "byteOffset": 327896
    },
    {
      "buffer": 0,
      "byteLength": 24,
      "byteOffset": 327928
    },
    {
      "buffer": 0,
      "byteLength": 24,
      "byteOffset": 327952
    },
    {
      "buffer": 0,
      "byteLength": 32,
      "byteOffset": 327976
    },
    {
      "buffer": 0,
      "byteLength": 24,
      "byteOffset": 328008
    },
    {
      "buffer": 0,
      "byteLength": 24,
      "byteOffset": 328032
    },
    {
      "buffer": 0,
      "byteLength": 32,
      "byteOffset": 328056
    },
    {
      "buffer": 0,
      "byteLength": 24,
      "byteOffset": 328088
    },
    {
      "buffer": 0,
      "byteLength": 24,
      "byteOffset": 328112
    },
    {
      "buffer": 0,
      "byteLength": 40,
      "byteOffset": 328136
    },
    {
      "buffer": 0,
      "byteLength": 160,
      "byteOffset": 328176
    },
    {
      "buffer": 0,
      "byteLength": 24,
      "byteOffset": 328336
    },
    {
      "buffer": 0,
      "byteLength": 24,
      "byteOffset": 328360
    },
    {
      "buffer": 0,
      "byteLength": 160,
      "byteOffset": 328384
    },
    {
      "buffer": 0,
      "byteLength": 24,
      "byteOffset": 328544
    },
    {
      "buffer": 0,
      "byteLength": 24,
      "byteOffset": 328568
    },
    {
      "buffer": 0,
      "byteLength": 32,
      "byteOffset": 328592
    },
    {
      "buffer": 0,
      "byteLength": 24,
      "byteOffset": 328624
    },
    {
      "buffer": 0,
      "byteLength": 24,
      "byteOffset": 328648
    },
    {
      "buffer": 0,
      "byteLength": 160,
      "byteOffset": 328672
    },
    {
      "buffer": 0,
      "byteLength": 24,
      "byteOffset": 328832
    },
    {
      "buffer": 0,
      "byteLength": 24,
      "byteOffset": 328856
    },
    {
      "buffer": 0,
      "byteLength": 32,
      "byteOffset": 328880
    },
    {
      "buffer": 0,
      "byteLength": 24,
      "byteOffset": 328912
    },
    {
      "buffer": 0,
      "byteLength": 24,
      "byteOffset": 328936
    },
    {
      "buffer": 0,
      "byteLength": 32,
      "byteOffset": 328960
    },
    {
      "buffer": 0,
      "byteLength": 24,
      "byteOffset": 328992
    },
    {
      "buffer": 0,
      "byteLength": 24,
      "byteOffset": 329016
    },
    {
      "buffer": 0,
      "byteLength": 32,
      "byteOffset": 329040
    },
    {
      "buffer": 0,
      "byteLength": 24,
      "byteOffset": 329072
    },
    {
      "buffer": 0,
      "byteLength": 24,
      "byteOffset": 329096
    },
    {
      "buffer": 0,
      "byteLength": 32,
      "byteOffset": 329120
    },
    {
      "buffer": 0,
      "byteLength": 24,
      "byteOffset": 329152
    },
    {
      "buffer": 0,
      "byteLength": 24,
      "byteOffset": 329176
    },
    {
      "buffer": 0,
      "byteLength": 32,
      "byteOffset": 329200
    },
    {
      "buffer": 0,
      "byteLength": 24,
      "byteOffset": 329232
    },
    {
      "buffer": 0,
      "byteLength": 24,
      "byteOffset": 329256
    },
    {
      "buffer": 0,
      "byteLength": 32,
      "byteOffset": 329280
    },
    {
      "buffer": 0,
      "byteLength": 24,
      "byteOffset": 329312
    },
    {
      "buffer": 0,
      "byteLength": 24,
      "byteOffset": 329336
    },
    {
      "buffer": 0,
      "byteLength": 32,
      "byteOffset": 329360
    },
    {
      "buffer": 0,
      "byteLength": 24,
      "byteOffset": 329392
    },
    {
      "buffer": 0,
      "byteLength": 24,
      "byteOffset": 329416
    },
    {
      "buffer": 0,
      "byteLength": 32,
      "byteOffset": 329440
    },
    {
      "buffer": 0,
      "byteLength": 24,
      "byteOffset": 329472
    },
    {
      "buffer": 0,
      "byteLength": 24,
      "byteOffset": 329496
    },
    {
      "buffer": 0,
      "byteLength": 32,
      "byteOffset": 329520
    },
    {
      "buffer": 0,
      "byteLength": 24,
      "byteOffset": 329552
    },
    {
      "buffer": 0,
      "byteLength": 24,
      "byteOffset": 329576
    },
    {
      "buffer": 0,
      "byteLength": 176,
      "byteOffset": 329600
    },
    {
      "buffer": 0,
      "byteLength": 24,
      "byteOffset": 329776
    },
    {
      "buffer": 0,
      "byteLength": 24,
      "byteOffset": 329800
    },
    {
      "buffer": 0,
      "byteLength": 176,
      "byteOffset": 329824
    },
    {
      "buffer": 0,
      "byteLength": 24,
      "byteOffset": 330000
    },
    {
      "buffer": 0,
      "byteLength": 24,
      "byteOffset": 330024
    },
    {
      "buffer": 0,
      "byteLength": 32,
      "byteOffset": 330048
    },
    {
      "buffer": 0,
      "byteLength": 24,
      "byteOffset": 330080
    },
    {
      "buffer": 0,
      "byteLength": 24,
      "byteOffset": 330104
    },
    {
      "buffer": 0,
      "byteLength": 176,
      "byteOffset": 330128
    },
    {
      "buffer": 0,
      "byteLength": 24,
      "byteOffset": 330304
    },
    {
      "buffer": 0,
      "byteLength": 24,
      "byteOffset": 330328
    },
    {
      "buffer": 0,
      "byteLength": 32,
      "byteOffset": 330352
    },
    {
      "buffer": 0,
      "byteLength": 24,
      "byteOffset": 330384
    },
    {
      "buffer": 0,
      "byteLength": 24,
      "byteOffset": 330408
    },
    {
      "buffer": 0,
      "byteLength": 32,
      "byteOffset": 330432
    },
    {
      "buffer": 0,
      "byteLength": 24,
      "byteOffset": 330464
    },
    {
      "buffer": 0,
      "byteLength": 24,
      "byteOffset": 330488
    },
    {
      "buffer": 0,
      "byteLength": 32,
      "byteOffset": 330512
    },
    {
      "buffer": 0,
      "byteLength": 24,
      "byteOffset": 330544
    },
    {
      "buffer": 0,
      "byteLength": 24,
      "byteOffset": 330568
    },
    {
      "buffer": 0,
      "byteLength": 32,
      "byteOffset": 330592
    },
    {
      "buffer": 0,
      "byteLength": 24,
      "byteOffset": 330624
    },
    {
      "buffer": 0,
      "byteLength": 24,
      "byteOffset": 330648
    },
    {
      "buffer": 0,
      "byteLength": 32,
      "byteOffset": 330672
    },
    {
      "buffer": 0,
      "byteLength": 24,
      "byteOffset": 330704
    },
    {
      "buffer": 0,
      "byteLength": 24,
      "byteOffset": 330728
    },
    {
      "buffer": 0,
      "byteLength": 32,
      "byteOffset": 330752
    },
    {
      "buffer": 0,
      "byteLength": 24,
      "byteOffset": 330784
    },
    {
      "buffer": 0,
      "byteLength": 24,
      "byteOffset": 330808
    },
    {
      "buffer": 0,
      "byteLength": 32,
      "byteOffset": 330832
    },
    {
      "buffer": 0,
      "byteLength": 24,
      "byteOffset": 330864
    },
    {
      "buffer": 0,
      "byteLength": 24,
      "byteOffset": 330888
    },
    {
      "buffer": 0,
      "byteLength": 32,
      "byteOffset": 330912
    },
    {
      "buffer": 0,
      "byteLength": 24,
      "byteOffset": 330944
    },
    {
      "buffer": 0,
      "byteLength": 24,
      "byteOffset": 330968
    },
    {
      "buffer": 0,
      "byteLength": 32,
      "byteOffset": 330992
    },
    {
      "buffer": 0,
      "byteLength": 24,
      "byteOffset": 331024
    },
    {
      "buffer": 0,
      "byteLength": 24,
      "byteOffset": 331048
    },
    {
      "buffer": 0,
      "byteLength": 32,
      "byteOffset": 331072
    },
    {
      "buffer": 0,
      "byteLength": 24,
      "byteOffset": 331104
    },
    {
      "buffer": 0,
      "byteLength": 24,
      "byteOffset": 331128
    },
    {
      "buffer": 0,
      "byteLength": 176,
      "byteOffset": 331152
    },
    {
      "buffer": 0,
      "byteLength": 24,
      "byteOffset": 331328
    },
    {
      "buffer": 0,
      "byteLength": 24,
      "byteOffset": 331352
    },
    {
      "buffer": 0,
      "byteLength": 32,
      "byteOffset": 331376
    },
    {
      "buffer": 0,
      "byteLength": 24,
      "byteOffset": 331408
    },
    {
      "buffer": 0,
      "byteLength": 24,
      "byteOffset": 331432
    },
    {
      "buffer": 0,
      "byteLength": 176,
      "byteOffset": 331456
    },
    {
      "buffer": 0,
      "byteLength": 24,
      "byteOffset": 331632
    },
    {
      "buffer": 0,
      "byteLength": 24,
      "byteOffset": 331656
    },
    {
      "buffer": 0,
      "byteLength": 176,
      "byteOffset": 331680
    },
    {
      "buffer": 0,
      "byteLength": 24,
      "byteOffset": 331856
    },
    {
      "buffer": 0,
      "byteLength": 24,
      "byteOffset": 331880
    },
    {
      "buffer": 0,
      "byteLength": 32,
      "byteOffset": 331904
    },
    {
      "buffer": 0,
      "byteLength": 24,
      "byteOffset": 331936
    },
    {
      "buffer": 0,
      "byteLength": 24,
      "byteOffset": 331960
    },
    {
      "buffer": 0,
      "byteLength": 32,
      "byteOffset": 331984
    },
    {
      "buffer": 0,
      "byteLength": 24,
      "byteOffset": 332016
    },
    {
      "buffer": 0,
      "byteLength": 24,
      "byteOffset": 332040
    },
    {
      "buffer": 0,
      "byteLength": 32,
      "byteOffset": 332064
    },
    {
      "buffer": 0,
      "byteLength": 24,
      "byteOffset": 332096
    },
    {
      "buffer": 0,
      "byteLength": 24,
      "byteOffset": 332120
    },
    {
      "buffer": 0,
      "byteLength": 32,
      "byteOffset": 332144
    },
    {
      "buffer": 0,
      "byteLength": 24,
      "byteOffset": 332176
    },
    {
      "buffer": 0,
      "byteLength": 24,
      "byteOffset": 332200
    },
    {
      "buffer": 0,
      "byteLength": 32,
      "byteOffset": 332224
    },
    {
      "buffer": 0,
      "byteLength": 24,
      "byteOffset": 332256
    },
    {
      "buffer": 0,
      "byteLength": 24,
      "byteOffset": 332280
    },
    {
      "buffer": 0,
      "byteLength": 32,
      "byteOffset": 332304
    },
    {
      "buffer": 0,
      "byteLength": 24,
      "byteOffset": 332336
    },
    {
      "buffer": 0,
      "byteLength": 24,
      "byteOffset": 332360
    },
    {
      "buffer": 0,
      "byteLength": 32,
      "byteOffset": 332384
    },
    {
      "buffer": 0,
      "byteLength": 24,
      "byteOffset": 332416
    },
    {
      "buffer": 0,
      "byteLength": 24,
      "byteOffset": 332440
    },
    {
      "buffer": 0,
      "byteLength": 176,
      "byteOffset": 332464
    },
    {
      "buffer": 0,
      "byteLength": 24,
      "byteOffset": 332640
    },
    {
      "buffer": 0,
      "byteLength": 24,
      "byteOffset": 332664
    },
    {
      "buffer": 0,
      "byteLength": 176,
      "byteOffset": 332688
    },
    {
      "buffer": 0,
      "byteLength": 24,
      "byteOffset": 332864
    },
    {
      "buffer": 0,
      "byteLength": 24,
      "byteOffset": 332888
    },
    {
      "buffer": 0,
      "byteLength": 176,
      "byteOffset": 332912
    },
    {
      "buffer": 0,
      "byteLength": 24,
      "byteOffset": 333088
    },
    {
      "buffer": 0,
      "byteLength": 24,
      "byteOffset": 333112
    },
    {
      "buffer": 0,
      "byteLength": 32,
      "byteOffset": 333136
    },
    {
      "buffer": 0,
      "byteLength": 24,
      "byteOffset": 333168
    },
    {
      "buffer": 0,
      "byteLength": 24,
      "byteOffset": 333192
    },
    {
      "buffer": 0,
      "byteLength": 176,
      "byteOffset": 333216
    },
    {
      "buffer": 0,
      "byteLength": 24,
      "byteOffset": 333392
    },
    {
      "buffer": 0,
      "byteLength": 24,
      "byteOffset": 333416
    },
    {
      "buffer": 0,
      "byteLength": 32,
      "byteOffset": 333440
    },
    {
      "buffer": 0,
      "byteLength": 24,
      "byteOffset": 333472
    },
    {
      "buffer": 0,
      "byteLength": 24,
      "byteOffset": 333496
    },
    {
      "buffer": 0,
      "byteLength": 32,
      "byteOffset": 333520
    },
    {
      "buffer": 0,
      "byteLength": 24,
      "byteOffset": 333552
    },
    {
      "buffer": 0,
      "byteLength": 24,
      "byteOffset": 333576
    },
    {
      "buffer": 0,
      "byteLength": 32,
      "byteOffset": 333600
    },
    {
      "buffer": 0,
      "byteLength": 24,
      "byteOffset": 333632
    },
    {
      "buffer": 0,
      "byteLength": 24,
      "byteOffset": 333656
    },
    {
      "buffer": 0,
      "byteLength": 32,
      "byteOffset": 333680
    },
    {
      "buffer": 0,
      "byteLength": 24,
      "byteOffset": 333712
    },
    {
      "buffer": 0,
      "byteLength": 24,
      "byteOffset": 333736
    },
    {
      "buffer": 0,
      "byteLength": 32,
      "byteOffset": 333760
    },
    {
      "buffer": 0,
      "byteLength": 24,
      "byteOffset": 333792
    }
  ],
  "samplers": [
    {
      "magFilter": 9728,
      "minFilter": 9984
    }
  ],
  "buffers": [
    {
      "byteLength": 333816,
      "uri": "pfp.bin"
    }
  ]
}
